<?xml version="1.0" standalone="no"?>
<!DOCTYPE svg PUBLIC "-//W3C//DTD SVG 20010904//EN"
 "http://www.w3.org/TR/2001/REC-SVG-20010904/DTD/svg10.dtd">
<svg version="1.0" xmlns="http://www.w3.org/2000/svg"
 width="981.000000pt" height="980.000000pt" viewBox="0 0 981.000000 980.000000"
 preserveAspectRatio="xMidYMid meet">

<g transform="translate(0.000000,980.000000) scale(0.100000,-0.100000)"
fill="#000000" stroke="none">
<path d="M8667 9790 c-160 -26 -339 -105 -464 -205 -43 -35 -180 -166 -304
-292 -196 -198 -230 -237 -260 -298 -32 -66 -34 -75 -34 -180 0 -104 2 -114
34 -180 31 -65 67 -104 480 -516 412 -413 451 -449 516 -480 66 -32 76 -34
180 -34 105 0 114 2 180 34 62 30 98 61 331 295 325 325 381 406 446 644 31
111 31 363 0 474 -100 364 -363 626 -720 719 -89 23 -294 33 -385 19z m276
-773 c83 -49 123 -151 97 -247 -10 -36 -31 -64 -111 -145 l-99 -100 -150 150
c-82 82 -150 153 -150 157 0 6 52 59 147 151 76 73 178 85 266 34z"/>
<path d="M4460 9609 c-1593 -119 -3022 -1017 -3821 -2402 -342 -592 -546
-1236 -621 -1967 -20 -191 -17 -707 5 -910 144 -1319 770 -2464 1798 -3286
1064 -850 2435 -1201 3804 -974 1364 227 2590 1066 3311 2266 472 786 702
1657 681 2579 -14 602 -117 1118 -334 1670 -55 141 -231 515 -242 515 -3 0
-143 -137 -310 -304 l-304 -305 52 -122 c377 -884 418 -1901 115 -2832 -276
-845 -845 -1584 -1596 -2070 -545 -353 -1145 -560 -1808 -623 -208 -20 -682
-15 -865 10 -826 111 -1542 434 -2155 973 -674 593 -1131 1410 -1285 2295 -70
407 -77 861 -19 1268 193 1354 1060 2509 2297 3059 523 233 1054 344 1647 344
573 0 1084 -105 1592 -328 l97 -43 301 304 c165 166 300 307 300 312 0 12
-347 179 -495 238 -588 233 -1194 347 -1828 343 -111 -1 -254 -6 -317 -10z"/>
<path d="M7029 8332 c-25 -10 -60 -27 -78 -38 -18 -10 -848 -892 -1845 -1960
l-1811 -1941 -272 -818 c-150 -450 -271 -820 -270 -822 2 -1 372 120 822 270
l818 272 1896 1768 c1043 973 1919 1792 1947 1822 29 29 65 80 80 112 26 52
29 68 29 158 0 93 -2 105 -33 167 -80 163 -260 248 -431 204 -36 -9 -80 -26
-100 -38 -20 -11 -826 -810 -1791 -1774 -1251 -1249 -1766 -1758 -1792 -1769
-157 -64 -318 96 -253 253 11 26 522 543 1774 1797 1870 1873 1786 1784 1812
1907 34 156 -55 334 -205 411 -53 27 -73 31 -156 34 -75 3 -105 -1 -141 -15z"/>
</g>
</svg>
